Coordinates
version=1
nRows=16
nColumns=36
inDegrees=yes

Units are S.I. units (second, meters, Newtons, ...)
If the header above contains a line with 'inDegrees', this indicates whether rotational values are in degrees (yes) or radians (no).

endheader
time	pelvis_tilt	pelvis_list	pelvis_rotation	pelvis_tx	pelvis_ty	pelvis_tz	hip_flexion_r	hip_adduction_r	hip_rotation_r	knee_angle_r	knee_angle_r_beta	ankle_angle_r	subtalar_angle_r	mtp_angle_r	hip_flexion_l	hip_adduction_l	hip_rotation_l	knee_angle_l	knee_angle_l_beta	ankle_angle_l	subtalar_angle_l	mtp_angle_l	lumbar_extension	lumbar_bending	lumbar_rotation	arm_flex_r	arm_add_r	arm_rot_r	elbow_flex_r	pro_sup_r	arm_flex_l	arm_add_l	arm_rot_l	elbow_flex_l	pro_sup_l
      7.48333330	    -24.48423260	      2.02987632	     -1.53419130	     -0.07057372	      0.69806980	     -0.07547363	     91.85694956	     -7.57989354	      3.22584562	     91.44170263	      1.59595878	     34.48796019	      2.28313008	     -7.49999987	     91.77703912	    -11.92701664	     -2.94932138	     93.74558618	      1.63616914	     32.55418949	      8.84745047	     -7.49999987	    -46.87620207	     -0.83685336	      9.51155893	     23.98032302	    -26.51880158	     -8.60054045	     81.53956380	     90.72061425	     36.38402596	    -13.11023398	     13.34370079	     81.31244520	     84.54480041
      7.50000000	    -25.21151947	      2.04073891	     -1.33052766	     -0.07271861	      0.69600198	     -0.06084095	     92.83719886	     -7.69626785	      3.24954039	     92.08109203	      1.60711823	     34.73150600	      2.50919515	     -7.49999987	     92.78536839	    -12.17898771	     -3.05559082	     93.94972256	      1.63973199	     32.59465564	      9.36865863	     -7.49999987	    -47.92086662	     -0.93518164	     10.01489146	     25.30380284	    -26.95011518	     -8.66588229	     81.71691738	     91.25211246	     37.97780362	    -13.11880801	     13.57808364	     81.99547745	     85.01561583
      7.51666670	    -25.99732255	      2.21677343	     -1.34473059	     -0.07058252	      0.69647645	     -0.06107297	     93.46473790	     -7.60120998	      3.34521902	     92.16926302	      1.60865711	     35.12013293	      2.77722086	     -7.49999987	     93.20237661	    -12.50183154	     -3.33096492	     93.78404254	      1.63684033	     32.90087593	      9.47179297	     -7.49999987	    -49.23084808	     -1.35899990	     10.45807680	     26.08496849	    -27.91830501	     -8.10515419	     82.93841394	     91.55868334	     39.28773513	    -14.78752847	     15.99912877	     84.92793922	     85.67967799
      7.53333330	    -26.95775731	      2.32418557	     -1.32011810	     -0.07017201	      0.69540321	     -0.06031840	     94.28439312	     -7.49526502	      3.35168257	     92.15662531	      1.60843654	     35.30309865	      3.12489400	     -7.49999987	     93.90715795	    -12.76432700	     -3.48445038	     93.65762477	      1.63463392	     32.90645279	      9.58091595	     -7.49999987	    -49.95036546	     -1.66293796	     10.72717645	     26.54843912	    -28.35341883	     -7.99641253	     83.36788110	     92.53175484	     40.22447034	    -15.85324147	     17.11781941	     86.67546569	     88.79027814
      7.55000000	    -28.52886484	      2.11446436	     -1.33338494	     -0.08078047	      0.69121375	     -0.05495182	     96.05444738	     -7.33692770	      3.02061665	     92.29526192	      1.61085620	     35.41320443	      3.76807982	     -7.49999987	     95.95030890	    -13.22328872	     -3.17791447	     93.75305042	      1.63629941	     32.49713614	      9.81218019	     -7.49999987	    -50.07018691	     -1.73324711	     11.39586099	     27.97184278	    -29.33737942	     -7.13797936	     84.00147215	     92.53782308	     41.87986254	    -16.76645624	     18.45564534	     88.41924661	     89.01355900
      7.56666670	    -29.91649352	      2.14576017	     -1.31757687	     -0.07906992	      0.69021276	     -0.05688154	     97.72849663	     -7.17340390	      3.01746232	     92.43000746	      1.61320796	     35.46667475	      4.04230191	     -7.49999987	     97.55136058	    -13.56432991	     -3.19658983	     93.73506740	      1.63598555	     32.00475641	      9.65254063	     -7.49999987	    -50.18957455	     -2.06004320	     11.62797801	     28.60252944	    -29.79382579	     -6.56637019	     84.77017867	     92.47929796	     42.60174404	    -17.90890893	     19.67051113	     90.54494327	     89.37382029
      7.58333330	    -31.12644404	      2.17333092	     -1.48690080	     -0.07600729	      0.68927234	     -0.05740787	     98.82707053	     -6.86113275	      2.98780982	     92.12181344	      1.60782896	     35.36398099	      4.21000851	     -7.49999987	     98.60075563	    -13.98181243	     -3.17158195	     93.46797137	      1.63132385	     31.60709998	      9.28493569	     -7.49999987	    -50.48722998	     -2.38836266	     11.91472519	     29.21457996	    -30.63417673	     -5.98798448	     85.28219102	     92.39543463	     42.86312447	    -18.89648889	     20.53215143	     92.45446063	     89.73604976
      7.60000000	    -31.42395850	      2.03100025	     -1.47519241	     -0.07532897	      0.68250573	     -0.05532992	     99.50675191	     -6.58628884	      3.07069135	     92.57937815	      1.61581497	     35.03237320	      4.09495193	     -7.49999987	     99.28519816	    -14.18648699	     -2.92161210	     93.85827243	      1.63813588	     31.19473235	      8.87198584	     -7.49999987	    -51.12146059	     -2.16261298	     11.39315811	     31.33412360	    -30.91269367	     -3.76923654	     84.62743490	     90.97995931	     42.18384239	    -20.22935133	     20.10203129	     94.85434138	     92.82292505
      7.61666670	    -31.63603773	      2.12556096	     -1.39542380	     -0.04999675	      0.69484790	     -0.05642367	     98.71979648	     -6.37581550	      3.34113718	     92.17071465	      1.60868244	     35.02182297	      4.03872772	     -7.49999987	     98.33374787	    -14.09808492	     -3.08794055	     93.39713761	      1.63008756	     31.97254387	      8.55276976	     -7.49999987	    -52.20836925	     -2.31895771	     11.69054159	     31.19850515	    -31.38011942	     -4.12649229	     84.33855965	     90.72846761	     41.04028287	    -20.31893161	     20.08666501	     95.49546621	     92.70314496
      7.63333330	    -33.46442464	      1.66632986	     -1.38884195	     -0.06195344	      0.68712900	     -0.05100470	     99.82946056	     -6.28194773	      2.83767332	     92.06511856	      1.60683945	     35.06459000	      4.66575106	     -7.49999987	     99.86399832	    -14.40756239	     -2.45098491	     93.23309972	      1.62722456	     32.37051187	      8.66367607	     -7.49999987	    -52.21144212	     -1.91588149	     11.44266086	     34.90827317	    -32.80080722	     -0.39298997	     83.41057918	     89.56420117	     41.46903131	    -22.18340868	     20.32090561	     98.48477830	     96.33708122
      7.65000000	    -34.89316252	      1.04666513	     -0.87773206	     -0.07668325	      0.67671672	     -0.03083498	    101.90867770	     -6.22220275	      2.37863233	     93.35907000	      1.62942316	     35.52755436	      4.79761464	     -7.49999987	    102.46597264	    -14.69367387	     -1.83828720	     94.10518884	      1.64244539	     32.16910887	      8.62283327	     -7.49999987	    -51.43110730	     -2.30649740	     11.93642249	     35.83081666	    -34.18132667	      1.36332482	     84.53978364	     89.99510126	     42.35368356	    -23.77750252	     22.41195337	    101.37725505	     97.44028579
      7.66666670	    -35.77094348	      0.73804393	     -0.53605050	     -0.06525356	      0.67343155	     -0.02421881	    102.89198826	     -5.79339930	      2.28752149	     94.16457389	      1.64348185	     36.05754416	      4.81752408	     -7.49999987	    103.72681082	    -15.03288223	     -1.50703999	     94.53867247	      1.65001111	     32.11336647	      8.65410259	     -7.49999987	    -51.36597705	     -2.84408615	     11.02771630	     37.40128968	    -33.74195317	      4.05200866	     83.62430210	     89.14391303	     41.96759725	    -26.03912752	     22.23406029	    103.99564036	     99.03156648
      7.68333330	    -37.18172851	      0.39297855	     -0.47191794	     -0.07662791	      0.66480057	     -0.02049585	    104.72759112	     -5.44358914	      1.89256588	     94.88934013	      1.65613141	     36.65932241	      5.41514656	     -7.49999987	    105.82579038	    -15.75128886	     -1.05183578	     94.90135841	      1.65634117	     31.80571552	      8.87861040	     -7.49999987	    -50.35703512	     -3.36574950	     11.57522642	     37.73444972	    -34.85074705	      5.33076007	     84.16585414	     88.45946372	     42.90018405	    -27.42479422	     23.69279530	    106.31683486	     98.50818599
      7.70000000	    -37.93137279	      0.39715853	      0.02639627	     -0.05147402	      0.67019421	     -0.01845432	    105.14932019	     -5.16354352	      2.18122818	     95.00971170	      1.65823229	     36.71070999	      4.75269172	     -7.49999987	    106.06166699	    -15.74712229	     -1.18383211	     94.61242455	      1.65129832	     31.47778910	      8.32050376	     -7.49999987	    -50.49471064	     -3.97344508	     10.84790256	     37.37644425	    -34.60146690	      5.81034238	     84.51556899	     88.67259957	     43.12328546	    -29.33548171	     24.66471310	    107.96655261	     99.08677989
      7.71666670	    -39.95928919	     -0.37187290	      0.15616800	     -0.08208624	      0.67389546	     -0.02682741	    106.76166278	     -5.18821710	      1.46133350	     93.93314618	      1.63944268	     35.97499519	      4.61122994	     -7.49999987	    108.18269740	    -15.86530267	     -0.29062030	     93.72399940	      1.63579238	     30.27564226	      8.33114685	     -7.49999987	    -49.34034104	     -3.44701283	     11.40599800	     42.57546724	    -36.84630064	      9.94061914	     82.75458497	     89.03228191	     49.34024908	    -31.01871406	     27.82898242	    107.87510452	    100.03741710
      7.73333330	    -41.65622271	      0.38551568	      0.25887863	     -0.05924903	      0.68363351	     -0.05747199	    107.65582542	     -5.29468858	      2.32690284	     92.27149800	      1.61044145	     35.55591048	      4.30194265	     -7.49999987	    108.30809770	    -15.23068803	     -1.04231661	     92.54675689	      1.61524562	     29.83258190	      7.44868617	     -7.49999987	    -48.52079631	     -3.41399979	     10.65028967	     43.31358356	    -37.14278578	     11.24898676	     81.20701926	     88.83069882	     50.98655978	    -32.06844564	     29.27319574	    107.25667359	    100.10946185
